<svg id="Layer_1" data-name="Layer 1" xmlns="http://www.w3.org/2000/svg" viewBox="0 0 2055.06 1080">
  <defs>
    <style>
      .cls-1 {
        fill: #c6c5c5;
      }

      .cls-2 {
        fill: #fff;
      }
    </style>
  </defs>
  <title>uploadImage</title>
  <rect class="cls-1" width="2055.06" height="1080"/>
  <g>
    <path class="cls-2" d="M1007.41,134.59q211.35,0,422.7,0a49.23,49.23,0,0,1,46.53,32.55,53.76,53.76,0,0,1,3.07,18.46q-.06,209-.12,418c0,3.2,1,4.91,3.57,6.68,48.91,33.48,80.21,79,93,137,5.25,23.8,6.64,47.94,3.09,72-12,81.07-55.34,139.23-129.54,173.93-31.31,14.64-64.74,20.26-99.19,18.39-48.63-2.64-91.93-19.54-129.29-50.9q-54.59-45.82-72.14-115.1c-.67-2.65-2.17-2.5-4.12-2.5H586c-29.38,0-51-21.59-51-51V185.85c0-27.23,17.68-47.51,44.61-51.06a63.79,63.79,0,0,1,8.42-.2ZM1445.94,590V187.58c0-1.13,0-2.25,0-3.37-.57-8.08-5.13-13.67-12.31-15.28a34.41,34.41,0,0,0-7.7-.61H588.24c-13.16,0-19.44,6-19.44,18.53q0,301.92,0,603.85c0,11.56,7.11,18.61,18.71,18.61q276.12,0,552.24.08c3,0,3.53-.86,3.21-3.56a122,122,0,0,1-.12-25.91c.43-4.34.46-4.34-3.91-4.34H755.37c-10.2,0-17.88-7.31-17.89-17,0-10.23,6.85-16.76,17.69-16.77q28.5,0,57,0a5.6,5.6,0,0,0,4.44-1.69q24.36-24.52,48.87-48.91c29.89-29.89,59.69-59.87,89.7-89.64,19.95-19.77,50.61-20.15,69.54-1.21s37.71,37.66,56.45,56.6c1.9,1.93,2.65,1.5,4.28-.13q69.11-69.23,138.32-138.35a51.74,51.74,0,0,1,73.21,0q26.63,26.55,53.16,53.19a4.79,4.79,0,0,0,4.07,1.7c23-1.21,45.42,1.89,67.5,8A220.5,220.5,0,0,1,1445.94,590Zm-84.31,17c-102.13,0-185.4,83.15-185.58,185.3S1259.45,978,1361.57,978s185.73-83.68,185.58-185.69S1463.71,606.94,1361.63,606.94Zm-51.77-27.5a6.14,6.14,0,0,0-.61-1.08c-12.55-12.57-25-25.21-37.7-37.64-6.48-6.35-15.81-6.21-22.4,0-5.05,4.8-9.91,9.8-14.83,14.73q-83,83-166,166c-6.62,6.62-13.33,13.16-20.66,20.38h93.35c7.13,0,7,0,9-6.84q31.83-107.58,136.37-148.37A201.13,201.13,0,0,1,1309.86,579.44ZM862.27,741.84h3.42q66.25,0,132.52,0a4.9,4.9,0,0,0,3.82-1.57q27.72-27.81,55.56-55.51c1.74-1.72,1.51-2.48-.09-4.07q-27.13-27-54.13-54.09c-8.35-8.35-17.45-8.3-25.85.1q-45.63,45.68-91.29,91.32C878.48,725.81,870.67,733.5,862.27,741.84Z"/>
    <path class="cls-2" d="M705.09,387.62A84.33,84.33,0,0,1,789.4,303.3c46.38,0,84.36,38.05,84.3,84.44S835.52,472,789.11,471.92,705.09,434,705.09,387.62Zm33.68.14A50.63,50.63,0,1,0,788.9,337C761.12,337,738.73,359.68,738.77,387.76Z"/>
    <path class="cls-2" d="M653,775.58c-11.36,0-22.71,0-34.07,0-9.9,0-16.41-6.77-16.41-16.91S609,741.87,619,741.85q34.08,0,68.15,0c10.16,0,16.61,6.69,16.58,17.06,0,10-6.64,16.64-16.66,16.66C675.73,775.6,664.37,775.58,653,775.58Z"/>
    <path class="cls-2" d="M642.54,286.25c2.41-.14,5.36.85,8.12,2.44,9.69,5.58,19.41,11.1,29,16.8,6.95,4.12,10,11.27,8.16,18.26a18.16,18.16,0,0,1-16.93,13.89,11.8,11.8,0,0,1-6.36-1.82c-10.48-6-21-11.92-31.38-18.11-7.06-4.22-9.84-11.67-7.61-19.06A17.23,17.23,0,0,1,642.54,286.25Z"/>
    <path class="cls-2" d="M887.85,320.12c.15-6.11,2.42-10.71,7.12-13.55,10.61-6.42,21.27-12.79,32.2-18.65,8.14-4.36,17.59-.81,22,7.5s2,17.36-6.37,22.37c-8.62,5.18-17.41,10.09-26.12,15.11-1.06.62-2.17,1.18-3.17,1.88-5.51,3.83-11.18,3.59-16.72.33A17.23,17.23,0,0,1,887.85,320.12Z"/>
    <path class="cls-2" d="M688.26,455.4c0,5.7-2.37,10.39-7.16,13.29-11,6.65-22.06,13.23-33.38,19.31-8.17,4.4-19.43-1.87-22.21-11.77-2-6.93.3-14,6.6-17.91,10.56-6.49,21.21-12.92,32.22-18.6S688.25,442.7,688.26,455.4Z"/>
    <path class="cls-2" d="M905.47,438.06a15.51,15.51,0,0,1,8.06,2.41c9.59,5.53,19.2,11,28.72,16.64,7.1,4.19,10.25,10.81,8.68,17.67-1.89,8.27-8.09,13.81-16.28,14.65a11.06,11.06,0,0,1-6.75-1.6c-10.77-6.16-21.58-12.25-32.21-18.66a15.63,15.63,0,0,1-7.18-18.27C890.83,443,897,438.1,905.47,438.06Z"/>
    <path class="cls-2" d="M838.56,270.37a14.38,14.38,0,0,1,2-7.44c5.81-10.1,11.55-20.24,17.49-30.26,3.51-5.92,9-9,15.81-8.14,7.15.9,12.56,4.75,14.86,11.92a15.74,15.74,0,0,1-1.4,13c-5.71,10-11.37,20.07-17.29,30-4,6.63-11.89,9.82-18.47,7.9C843.55,285,838.52,278.65,838.56,270.37Z"/>
    <path class="cls-2" d="M737.62,270.4c0,8-4.68,14.12-12.21,16.67-6.08,2.05-14.4-.27-18-5.91a352.67,352.67,0,0,1-19.27-33.46c-4-8.08-.29-17,7.93-21.3s17.11-1.89,22.12,6.39c6,9.87,11.6,20,17.34,30A14.83,14.83,0,0,1,737.62,270.4Z"/>
    <path class="cls-2" d="M737.62,505.14a14.68,14.68,0,0,1-2.1,7.31c-5.73,10-11.38,20-17.28,29.9-3.66,6.13-9.53,9.17-16.46,8.27a16.57,16.57,0,0,1-14.4-12,14.94,14.94,0,0,1,1-12.07c6-10.72,12.1-21.42,18.52-31.9a15.67,15.67,0,0,1,18.53-6.51A17,17,0,0,1,737.62,505.14Z"/>
    <path class="cls-2" d="M855.79,487.44c5.67,0,10.4,2.26,13.31,7.06,6.44,10.61,12.79,21.29,18.65,32.22,4.32,8,.94,17.28-7.19,21.84-7.9,4.43-17.49,2-22.51-6-3.5-5.58-6.66-11.38-10-17.09-2.51-4.36-5.14-8.65-7.48-13.1C834.49,500.66,842.57,487.48,855.79,487.44Z"/>
    <path class="cls-2" d="M805,235.93c0,5.74,0,11.47,0,17.2-.08,9.6-7.22,16.43-17.1,16.4-9.53,0-16.58-7-16.62-16.54q-.06-17.19,0-34.38c0-9.69,7.1-16.55,16.93-16.55s16.74,6.92,16.79,16.68C805,224.47,805,230.2,805,235.93Z"/>
    <path class="cls-2" d="M771.21,539.19c0-5.73,0-11.46,0-17.19.08-9.44,7.2-16.31,16.83-16.31s16.83,6.84,16.88,16.26q.09,17.35,0,34.72c0,9.62-7.19,16.51-17,16.49-9.55,0-16.64-7-16.71-16.44C771.18,550.87,771.21,545,771.21,539.19Z"/>
    <path class="cls-2" d="M636.18,404.48c-5.84,0-11.69,0-17.53,0-9.29-.09-16.14-7.36-16.12-17,0-9.45,6.89-16.62,16.12-16.67q17.52-.09,35.06,0c9.42,0,16.29,7.19,16.29,16.84s-6.92,16.8-16.29,16.87C647.87,404.51,642,404.48,636.18,404.48Z"/>
    <path class="cls-2" d="M939.83,404.48c-5.85,0-11.69,0-17.53,0-9.3-.09-16.16-7.35-16.14-17,0-9.46,6.87-16.64,16.1-16.69q17.52-.09,35.06,0c9.43,0,16.31,7.18,16.31,16.82s-6.91,16.82-16.27,16.89C951.51,404.51,945.67,404.48,939.83,404.48Z"/>
    <path class="cls-2" d="M1422.32,809.32c-13.6,0-27.2.07-40.8-.07-2.51,0-3.13.57-3.12,3.1.11,27,.08,54,.06,80.94,0,8.81-6.22,16.19-14.42,17.18a16.94,16.94,0,0,1-18.93-13,19.73,19.73,0,0,1-.36-4.68c0-26.75-.06-53.51,0-80.26,0-2.66-.68-3.28-3.29-3.27-26.86.11-53.73.07-80.6.06-10,0-17.4-7.2-17.39-17,0-9.58,7.37-16.76,17.23-16.77,26.87,0,53.73-.05,80.6.07,2.8,0,3.47-.64,3.45-3.45-.12-26.86-.07-53.73-.06-80.6,0-8.84,6.19-16.19,14.41-17.18a16.91,16.91,0,0,1,18.92,13,19.65,19.65,0,0,1,.38,4.67q0,40.14,0,80.27c0,2.6.6,3.3,3.26,3.28,26.87-.1,53.73-.07,80.6-.06,10.08,0,17.42,7.17,17.41,16.94s-7.44,16.79-17.56,16.79Z"/>
  </g>
</svg>
